<?xml version="1.0" encoding="utf-8"?>
<!-- Generator: Adobe Illustrator 19.0.0, SVG Export Plug-In . SVG Version: 6.00 Build 0)  -->
<svg version="1.1" id="Layer_1" xmlns="http://www.w3.org/2000/svg" xmlns:xlink="http://www.w3.org/1999/xlink" x="0px" y="0px"
	 viewBox="0 0 500 500" style="enable-background:new 0 0 500 500;" xml:space="preserve">
<style type="text/css">
	.st0{fill:#CEA334;}
</style>
<g id="XMLID_1_">
	<path id="XMLID_3_" class="st0" d="M151.6,294.2c0-3.4-0.8-6.7-2.4-9.9c-2.9-5.9-12.4-10.3-21.5-14.4c-4.4-2-8.9-4.1-12.4-6.2
		c-16.9-10.3-22.5-22.8-24.2-31.5c-0.5-2.4-0.7-4.8-0.7-7.2c0-7.5,2.2-14.6,6.2-19.9c16-21.4,43-18.9,51-17.7
		c-7.8,0.3-27.1,3.8-36.3,22.1c-1.8,3.6-2.7,7.3-2.7,11c0,15,15.3,27.9,27.5,38.3c4.2,3.6,8.2,7,11.3,10.1c5.4,5.7,8.2,11.8,8.2,18
		c0,7.3-3.8,13.2-6.1,16C151,300.1,151.6,297.2,151.6,294.2z"/>
	<path id="XMLID_4_" class="st0" d="M76.6,285.4c3.7,3.1,11.5,8.3,26,12.4c7.4,2.1,14.3,2.2,19.9,2.4c5,0.1,8.9,0.2,11.4,1.6
		c2,1.1,3.3,2.9,3.3,4.8l-0.1,1.1c-0.7,2.8-4.5,5.8-13,5.9C98.6,313.8,82.7,294.6,76.6,285.4z"/>
	<path id="XMLID_5_" class="st0" d="M122.4,241.5c0,0,10.5-17.7,21.4-20.5c13.2-3.5,20.5,2.2,20.5,2.2l3.6-7.2l5.6,27.7
		c0,0,1,2.5-3.6,5.7c-4.6,3.1-5,2.5-5,2.5s-3-11.3-8.9-12.6c-5.9-1.3-5.9,6.6-5.6,9.1c0.3,2.5,5.4,12.8,13.9,8.5
		c9.2-4.7,13.5-10.7,13.5-10.7s1.3-3.1,2.6-2.2c1.3,0.9,6.3,6.3,6.3,6.3l-2,33c0,0,0,4.1-5.6,5.7c-5.6,1.6-5.6,1.3-5.6,1.3l3-10.1
		h3.6l-1-23.3c0,0-3.1,15.2-8.9,25.2c-6.9,11.9-18.2,21.7-18.2,21.7s7.1-8.5,6-18.8c-0.7-6.8-3.7-14.7-18.5-26.9
		C131.1,251,122.4,241.5,122.4,241.5z"/>
	<path id="XMLID_6_" class="st0" d="M139.6,305.8c0-1-0.2-2-0.7-2.9c-1.7-3.2-6.2-4.9-13.4-5.2c-13.2-0.4-44.8-3.7-53.7-24.7
		c-2.8-6.7-4.3-14.1-4.3-21.8c0-8.8,1.9-16,3.1-19.9c-0.2,1.1-0.2,3-0.2,3c0,8.3,2,23.8,15.3,34.8c8.4,7,21.1,12.5,37.5,16.4
		c11.2,2.6,17.5,6.6,18.9,11.9l0.3,2.2c0,2.6-1.2,5.3-3.3,8.1C139.4,307.1,139.6,305.8,139.6,305.8z"/>
	<path id="XMLID_7_" class="st0" d="M145.4,299.9c0-1.5-0.3-3.1-1-4.8c-2.4-5.7-9.1-9.7-20-12.1c-28.5-6.2-44.6-17.6-49.3-34.8
		c-1.2-4.3-1.7-8.2-1.7-11.9c0-23.6,20.8-36.3,27.8-39.9c-3.8,3.6-11.8,12.3-13.3,23.3c-0.3,2-0.4,4-0.4,5.9c0,14,7.2,26.4,22,37.5
		c4.7,3.5,10.9,6.4,17,9.1c8.7,3.9,17,7.7,20.2,13.1c1.6,2.7,2.2,5.3,2.2,7.8c0,5.1-2.6,9.2-4.4,11.4
		C145,303.3,145.4,301.7,145.4,299.9z"/>
	<path id="XMLID_8_" class="st0" d="M144.6,203c-4.6,0-8.9-4.3-8.9-8.9c0,4.6-4.3,8.9-8.9,8.9c4.6,0,8.9,4.3,8.9,8.9
		C135.7,207.3,140,203,144.6,203z"/>
	<path id="XMLID_9_" d="M222.4,280.3c0,13.2,10.1,20.2,23.7,20.2c18.5,0,26.5-8.1,26.5-26.2v-22.1c0-10.7-3-15.5-7.6-17.7
		c-0.7-0.3-1.4-0.7-1.4-1.1c0-0.3,0.6-0.4,0.9-0.4c3.1,0,4.2,0.4,9.3,0.4c4.7,0,7.9-0.4,9.1-0.4c1,0,1.7,0.1,1.7,0.4
		c0,0.2-0.6,0.6-1.7,1.4c-3.3,2-7.5,6.6-7.6,17.4v22c0,20.4-10,29-31.5,29c-17,0-34.4-3.6-34.4-22.7v-37.7c0-4.3-1.2-7.8-4.8-8.7
		c-0.6-0.2-1.1-0.5-1.1-0.6c0-0.3,0.7-0.4,1.7-0.4c1.8,0,7.1,0.4,10.7,0.4c3.6,0,8.9-0.4,10.7-0.4c1,0,1.7,0.1,1.7,0.4
		c0,0.1-0.6,0.4-1.1,0.6c-3.6,0.8-4.8,4.3-4.8,8.7L222.4,280.3L222.4,280.3z"/>
	<path id="XMLID_13_" d="M280.9,231.9l-7.1,0.3L268,232l-3.5-0.2c-1.2,0-2,0.7-2,1.6c0,1,1,1.6,2.1,2.1c3,1.4,6.9,4.8,6.9,16.7v22.1
		c0,17.6-7.6,25-25.3,25c-13.9,0-22.5-7.3-22.5-19v-37.6c0-4.4,1.3-6.9,3.9-7.5c2-0.7,2-1.4,2-1.8c0-1.6-2.1-1.6-2.8-1.6l-3.7,0.2
		l-7,0.3l-7-0.3l-3.7-0.2c-0.8,0-2.8,0-2.8,1.6c0,0.3,0,1,1.9,1.7c2.7,0.7,4,3.2,4,7.6v37.7c0,23.9,26.7,23.9,35.5,23.9
		c22.6,0,32.6-9.3,32.6-30.1v-22c0.1-8.2,2.4-13.7,7-16.4c1.6-1.1,2.2-1.6,2.2-2.4c0-1.6-2.1-1.6-2.8-1.6L280.9,231.9z M210.7,280.4
		v-37.7c0-4.6-1.3-7.1-3-8.5c0.5,0,1.2,0.1,1.2,0.1l7.1,0.3l7.1-0.3c0,0,0.7,0,1.2-0.1c-1.6,1.3-3,3.8-3,8.5v37.6
		c0,13,9.8,21.3,24.8,21.3c4.8,0,8.8-0.5,12.3-1.6c-4,1.3-8.8,1.9-14.5,1.9C221.2,301.9,210.7,295.1,210.7,280.4z M281.1,234.2
		c0,0,0.3,0,0.6,0c-3.5,2.3-7.4,7.3-7.5,18v22c0,14.1-4.8,22.2-15.5,25.7c10.3-3.3,15-11.6,15-25.6v-22.1c0-9.2-2.2-14.9-6.8-17.9
		c0.3,0,0.9,0,0.9,0l6,0.3L281.1,234.2z"/>
	<path id="XMLID_14_" d="M359,293.5c-9.3,7.2-21.7,9.6-33.6,9.6c-21.8,0-42-11.6-42-35.9c0-21.8,20.2-35.9,42-35.9
		c10.2,0,22.8,2.5,31.9,8l-3.4,9.9c-0.4,1.3-1.2,3.6-1.6,3.6c-0.3,0-0.9-1.6-1.2-2.8c-2.3-9.2-9.2-15.8-25.7-16.2
		c-20.2,0-27.1,17.5-27.1,33.3c0,15.7,7.8,33.3,31.6,33.3c10.9,0,19.1-5.6,24-16.3c0.6-1.3,0.7-2.2,1.2-2.2c0.4,0,0.6,0.3,1,1.9
		L359,293.5z"/>
	<path id="XMLID_17_" d="M282.2,267.2c0,25.6,21.7,37.1,43.2,37.1c14.2,0,25.8-3.3,34.3-9.9l0.6-0.5l-3.1-10.4
		c-0.5-1.6-0.8-2.7-2.1-2.7c-1.2,0-1.6,1.1-1.9,2l-0.4,1c-4.7,10.2-12.6,15.6-23,15.6c-28.2,0-30.4-24.6-30.4-32.1
		c0-15.5,6.8-32.1,26-32.1c14,0.3,22,5.3,24.6,15.3c0.9,3.1,1.5,3.6,2.3,3.6c1.1,0,1.5-1,2.5-4l3.9-11.1l-0.8-0.5
		c-10-6-23.4-8.2-32.5-8.2C304.1,230.1,282.2,244,282.2,267.2z M284.5,267.2c0-21.8,20.8-34.8,40.9-34.8c8.6,0,21,2,30.5,7.4
		c-0.5,1.5-3.2,9.3-3.2,9.3c-0.1,0.2-0.2,0.6-0.3,0.9c0-0.1-0.1-0.2-0.1-0.4c-2.8-11.1-11.6-16.7-26.8-17
		c-20.9,0-28.3,17.8-28.3,34.4c0,16.6,8.6,34.4,32.7,34.4c11.3,0,20-5.9,25.1-16.9c0,0,0.1-0.1,0.1-0.3c0.2,0.8,2,6.5,2.6,8.6
		c-7.9,5.8-19.1,8.9-32.2,8.9C305,301.9,284.5,291.2,284.5,267.2z"/>
	<path id="XMLID_18_" d="M382,264h20.6c8.1,0,15.2-3.6,16.5-7.9c0.2-0.6,0.3-1,0.8-1c0.3,0,0.6,0.3,0.6,1.4v18
		c0,0.7-0.1,1.1-0.4,1.1c-0.4,0-0.8-1.2-1.2-1.9c-3-5.2-11.7-7-19.5-7H382v15.2c0,9.7,1.3,16.9,5.8,18.2c1.3,0.4,2.3,0.6,2.3,0.9
		c0,0.2-0.1,0.3-0.7,0.3s-7.6-0.3-13.9-0.3c-6.3,0-12.6,0.3-13.1,0.3c-0.6,0-1-0.1-1-0.3c0-0.3,1-0.6,1.7-0.9c4.6-2.2,6-5.3,6-13.1
		v-41.7c0-6.1-0.6-9.4-3.8-10.6c-0.7-0.2-1.8-0.4-1.8-0.8c0-0.2,0.4-0.4,1.9-0.4H427l3,9.9c0.3,1.1,1.3,3.6,1.3,3.9
		c0,0.4,0,0.7-0.3,0.7c-0.3,0-1-0.7-1.4-1.3c-6.5-6.9-16.9-10.7-27.4-10.7H382L382,264L382,264z"/>
	<path id="XMLID_21_" d="M365.4,232.2c-0.9,0-3.1,0-3.1,1.6c0,1.2,1.3,1.6,2.2,1.8l0.4,0.1c2.3,0.8,3,3,3,9.5v41.7
		c0,8.1-1.7,10.3-5.4,12.1l-0.5,0.2c-0.9,0.4-1.8,0.8-1.8,1.8c0,0.3,0.2,1.5,2.2,1.5l1.3,0l11.9-0.3l12.6,0.3l1.3,0
		c1.7,0,1.8-1.1,1.8-1.5c0-1.1-1.1-1.4-2.4-1.8l-0.8-0.2c-3.4-1-5-6.5-5-17.1c0,0,0-12.1,0-14c2,0,16.1,0,16.1,0
		c9.2,0,16.1,2.4,18.5,6.4l0.3,0.7c0.4,0.8,0.8,1.8,1.9,1.8c0.6,0,1.6-0.3,1.6-2.2v-18c0-2.2-1.1-2.5-1.7-2.5c-1.3,0-1.6,1-1.9,1.7
		c-1,3.5-7.1,7.2-15.4,7.2c0,0-17.4,0-19.4,0c0-2,0-23.7,0-25.7c2.1,0,19.1,0,19.1,0c10.5,0,20.5,3.9,26.5,10.3
		c1,1.2,1.6,1.6,2.3,1.6c0.6,0,1.5-0.2,1.5-1.9c0-0.3-0.1-0.7-0.8-2.6l-0.6-1.7l-3-9.9l-0.2-0.8L365.4,232.2L365.4,232.2z
		 M426.1,234.5c0.4,1.4,2.8,9.1,2.8,9.1c0,0,0.3,0.7,0.4,1.3c-6.6-6.3-16.6-10-27.1-10h-21.4v30.3h21.7c7.4,0,14-2.8,16.6-6.8
		c0,2.6,0,11.2,0,14c-4.3-6.2-15.3-6.9-20-6.9h-18.4v16.4c0,10,1.4,15.8,4.6,18.2c-3.4-0.1-9.8-0.2-9.8-0.2s-7.6,0.2-10.2,0.2
		c3.6-2.4,4.9-6,4.9-13.1v-41.7c0-4.8-0.3-8.6-2.8-10.7C371.1,234.5,424.5,234.5,426.1,234.5z"/>
</g>
</svg>
